<?xml version="1.0" encoding="utf-8"?>
<!-- Generator: Adobe Illustrator 15.0.0, SVG Export Plug-In  -->
<!DOCTYPE svg PUBLIC "-//W3C//DTD SVG 1.0//EN" "http://www.w3.org/TR/2001/REC-SVG-20010904/DTD/svg10.dtd" [
	<!ENTITY ns_flows "http://ns.adobe.com/Flows/1.0/">
]>
<svg version="1.0"
	 xmlns="http://www.w3.org/2000/svg" xmlns:xlink="http://www.w3.org/1999/xlink" xmlns:a="http://ns.adobe.com/AdobeSVGViewerExtensions/3.0/"
	 x="0px" y="0px" width="300px" height="100px" viewBox="-5 -10.538 300 100" enable-background="new -5 -10.538 300 100"
	 xml:space="preserve">
<defs>
</defs>
<path fill="#515151" d="M35.73,35.351H0.38V17.654V0h17.654H35.73V35.351z M25.045,8.405H10.601v2.872h5.659v15.416h3.378V11.276
	h5.871L25.045,8.405z"/>
<path fill="#515151" d="M78.045,35.351h-35.35V17.654V0H60.35h17.696V35.351z M65.206,8.405l-4.856,8.236l-4.942-8.489l-3.421,0.591
	l6.631,10.896v7.011h3.379v-7.095l6.757-11.15H65.206z"/>
<path fill="#515151" d="M120.36,35.351H85.01V17.654V0h17.654h17.696V35.351z M97.131,26.65h3.336v-6.715h2.196
	c4.308,0,7.18-1.943,7.18-5.828c0-3.717-2.83-5.702-7.011-5.702h-5.702V26.65z M102.58,17.443h-2.112v-6.546h2.112
	c2.576,0,4.055,1.14,4.055,3.252C106.634,16.345,105.156,17.443,102.58,17.443z"/>
<path fill="#515151" d="M162.675,35.351h-35.35V17.654V0h17.654h17.696V35.351z M150.766,23.947h-8.363v-5.448h6.799l-0.423-2.703
	h-6.376v-4.73h8.109V8.363h-11.403V26.65h11.657V23.947z"/>
<path fill="#515151" d="M204.99,35.351h-35.35V17.654V0h17.653h17.696V35.351z M181.171,13.22c0,2.66,1.689,4.096,5.49,5.448
	c2.407,0.887,3.759,1.732,3.759,3.168c0,1.563-1.184,2.45-3.421,2.45c-1.858,0-4.182-0.761-5.66-1.563l-0.464,2.872
	c1.563,0.718,3.844,1.352,6.039,1.352c3.971,0,6.547-2.027,6.547-5.448c0-2.45-1.479-4.097-5.618-5.618
	c-2.322-0.844-3.589-1.647-3.589-2.914c0-1.352,1.014-2.281,3.421-2.281c1.478,0,3.21,0.549,4.392,1.309l0.508-2.83
	c-1.184-0.549-2.787-1.098-4.815-1.098C183.789,8.067,181.171,10.01,181.171,13.22z"/>
<path fill="#515151" d="M247.306,35.351h-35.351V17.654V0h17.654h17.696V35.351z M235.396,23.947h-8.362v-5.448h6.8l-0.423-2.703
	h-6.377v-4.73h8.108V8.363h-11.402V26.65h11.656V23.947z"/>
<path fill="#515151" d="M289.62,35.351H254.27V17.654V0h17.654h17.696V35.351z M278.935,8.405h-14.443v2.872h5.659v15.416h3.378
	V11.276h5.871L278.935,8.405z"/>
<path fill="#515151" d="M36.11,78.925H0V42.689h36.11V78.925z M2.661,45.138v15.625v15.586h30.831V45.138H18.034H2.661z
	 M25.425,69.591h-3.547l-3.801-14.148L14.444,69.55h-3.548L7.518,52.023l3.083-0.592l1.731,10.389l0.633,4.434l1.014-4.434
	l2.576-10.137h3.336l2.619,10.178l1.055,4.604l0.592-4.604l1.689-10.178h3.041L25.425,69.591z"/>
<path fill="#515151" d="M78.425,78.925h-36.11V42.689h36.11V78.925z M44.976,45.138v15.625v15.586h30.831V45.138H60.35H44.976z
	 M55.619,69.55v-1.986h3.209V53.669h-2.957l-0.337-1.986h9.629v1.986h-3.252v13.895h2.957l0.338,1.986H55.619z"/>
<path fill="#515151" d="M120.74,78.925H84.63V42.689h36.11V78.925z M87.291,45.138v15.625v15.586h30.831V45.138h-15.458H87.291z
	 M104.143,54.343V69.55h-3.083V54.343H95.4v-2.66h14.106l0.422,2.66H104.143z"/>
<path fill="#515151" d="M163.055,78.925h-36.109V42.689h36.109V78.925z M129.605,45.138v15.625v15.586h30.832V45.138h-15.458
	H129.605z M149.244,69.55v-7.984h-8.362v7.984h-3.083V51.683h3.083v7.223h8.362v-7.223h3.083V69.55H149.244z"/>
<path fill="#515151" d="M205.37,78.925h-36.109V42.689h36.109V78.925z M171.921,45.138v15.625v15.586h30.831V45.138h-15.458H171.921
	z"/>
<path fill="#515151" d="M247.686,78.925h-36.11V42.689h36.11V78.925z M214.235,45.138v15.625v15.586h30.831V45.138h-15.457H214.235z
	 M234.466,58.652l-3.463,10.982h-2.957l-3.462-10.982l-1.057-3.506l-0.169,3.506l-0.633,10.898h-2.915l1.226-17.867h4.055
	l4.561,14.318l4.519-14.318h4.097l1.142,17.867h-3.084l-0.633-10.898l-0.17-3.463L234.466,58.652z"/>
<path fill="#515151" d="M290,78.925h-36.109V42.689H290V78.925z M256.551,45.138v15.625v15.586h30.83V45.138h-15.457H256.551z
	 M266.308,69.55V51.683h11.191v2.492h-8.109v4.814h6.42l0.422,2.535h-6.842v5.531h8.362v2.494H266.308z"/>
</svg>
